<svg width="512" height="495" xmlns="http://www.w3.org/2000/svg" role="img" class="d-block my-1">
 <title>Q小程序</title>

 <g>
  <title>Layer 1</title>
  <path stroke="null" id="svg_1" fill="#6610f2" d="m106.75954,-1c-29.32849,0 -51.02975,31.09498 -50.05837,64.8177c0.93217,32.3983 -0.27878,74.35779 -8.99936,108.57651c-8.74671,34.31898 -23.53946,56.05855 -47.70181,58.84987l0,31.51183c24.16236,2.79132 38.9551,24.53089 47.70181,58.84987c8.72058,34.21872 9.93153,76.17821 8.99936,108.57651c-0.97137,33.71745 20.72988,64.8177 50.06273,64.8177l300.51576,0c29.32849,0 51.02539,-31.09498 50.05402,-64.8177c-0.93217,-32.3983 0.27878,-74.35779 8.99936,-108.57651c8.75107,-34.31898 23.50461,-56.05855 47.66697,-58.84987l0,-31.51183c-24.16236,-2.79132 -38.9159,-24.53089 -47.66697,-58.84987c-8.72058,-34.21345 -9.93153,-76.17821 -8.99936,-108.57651c0.97137,-33.71745 -20.72553,-64.8177 -50.05402,-64.8177l-300.52448,0l0.00436,0zm0,0m152.70953,362.08769c-48.18288,0 -87.21099,-54.33078 -87.21099,-121.40586c0,-67.07503 28.45861,-123.31868 87.85157,-124.48265c59.39296,-1.16396 88.11942,57.40762 88.11942,124.48265c0,33.53757 -11.92571,68.39249 -27.7056,90.35959c15.01342,18.99833 30.02683,37.99666 45.0403,56.99504c-9.1597,7.73781 -45.25352,0.86747 -54.41322,3.23661l-26.66497,-32.77679c-16.55093,4.50505 -22.00508,3.59141 -25.01651,3.59141zm1.47797,-44.72305c-26.09648,0 -48.32358,-30.877 -47.2346,-79.31372c1.08898,-48.43677 17.05443,-79.64351 47.2346,-79.31372c30.18016,0.32979 48.59583,20.6536 47.77909,78.98393c-0.81674,58.33039 -21.68261,79.64351 -47.77909,79.64351z" clip-rule="evenodd" fill-rule="evenodd"/>
 </g>
</svg>